<svg xmlns="http://www.w3.org/2000/svg" viewBox="0 0 33.15 123.93">
  <title>lampu</title>
  <g id="Layer_2" data-name="Layer 2">
    <g id="OBJECTS">
      <g>
        <path d="M16.16,117.93a11.93,11.93,0,0,0,6.71,4.17,10.68,10.68,0,0,0,7.05-3.68Z" fill="#01e6bf" fill-rule="evenodd"/>
        <polygon points="15.09 99.82 16.16 117.93 30.28 117.62 31.48 99.37 15.09 99.82" fill="#09d7eb" fill-rule="evenodd"/>
        <path d="M32,98.15l-17.49.28s.22-3.66,3.69-4.25a6.06,6.06,0,0,0,4.82-4.45s2,3.63,4.47,4S32,96.46,32,98.15Z" fill="#d68019" fill-rule="evenodd"/>
        <polygon points="33.15 97.76 13 98.08 13.33 100.18 33.15 99.97 33.15 97.76" fill="#fdc602" fill-rule="evenodd"/>
        <path d="M25.84,115.93l-4.5-.13s-1.13-7.27-.83-9.67,2.65-4.54,2.65-4.54a8.32,8.32,0,0,1,3.27,4.22C27.05,108.32,25.84,115.93,25.84,115.93Z" fill="#fff" fill-rule="evenodd"/>
        <path d="M29.82,115.61l-2.29.1s.14-6.62.44-8.84a13.87,13.87,0,0,1,2.29-5Z" fill="#fff" fill-rule="evenodd"/>
        <path d="M19.93,115.39l-2.68.42-.87-13.27a7,7,0,0,1,2.56,3.15C19.42,107.44,19.93,115.39,19.93,115.39Z" fill="#fff" fill-rule="evenodd"/>
        <path d="M19.35,103.71a10.32,10.32,0,0,0-1.81-2.21c.74-.12,3.58-.29,3.58-.29Z" fill="#09d7eb" fill-rule="evenodd"/>
        <polygon points="27.25 103.83 25.7 101.54 28.78 101.69 27.25 103.83" fill="#09d7eb" fill-rule="evenodd"/>
        <polygon points="14.78 117.62 31.44 117.73 31.04 119.3 14.9 119.16 14.78 117.62" fill="#fdcd1d" fill-rule="evenodd"/>
        <path d="M24.26,122.45A1.44,1.44,0,0,1,23,123.93a1.27,1.27,0,0,1-1.3-1.35A1.43,1.43,0,0,1,23,121.1,1.28,1.28,0,0,1,24.26,122.45Z" fill="#fff" fill-rule="evenodd"/>
        <path d="M23.05,87.05a1.61,1.61,0,1,0,1.57,1.61,1.57,1.57,0,0,0-1.57-1.61Zm0,2.54h0a.92.92,0,0,1-.9-.93.9.9,0,0,1,.89-.92.93.93,0,0,1,0,1.85Z" fill="#fff" fill-rule="evenodd"/>
        <path d="M21.2,94.18a1.1,1.1,0,0,0-.55.14,16.83,16.83,0,0,0-1.76.86,5.8,5.8,0,0,0-.9.54c-.3.23-.59.47-.9.69s0,.9.37.63a8.2,8.2,0,0,1,.82-.46c.29-.14.58-.31.86-.46.55-.3,1.1-.57,1.67-.82.32-.14.8-.24.79-.69A.44.44,0,0,0,21.2,94.18Z" fill="#fdc602" fill-rule="evenodd"/>
        <path d="M22.24,93.23a.48.48,0,0,0,0,1A.48.48,0,0,0,22.24,93.23Z" fill="#fdc602" fill-rule="evenodd"/>
        <path d="M23.33,110.44a.25.25,0,0,0-.43,0A3.73,3.73,0,0,0,23,114.9a.18.18,0,0,0,.23,0,.22.22,0,0,0,.16-.13,4.26,4.26,0,0,0-.05-4.35Zm-.25,3.83h0a3.41,3.41,0,0,1,0-3.18A3.76,3.76,0,0,1,23.08,114.27Z" fill="#fff" fill-rule="evenodd"/>
        <path d="M23.07,83.28a1.17,1.17,0,0,0,0,2.34A1.17,1.17,0,0,0,23.07,83.28Z" fill="#fff" fill-rule="evenodd"/>
        <path d="M23.07,81.25a.59.59,0,0,0,0,1.17A.59.59,0,0,0,23.07,81.25Z" fill="#fff" fill-rule="evenodd"/>
        <path d="M23.07,77.73a1.17,1.17,0,0,0,0,2.34A1.17,1.17,0,0,0,23.07,77.73Z" fill="#fff" fill-rule="evenodd"/>
        <path d="M23.07,75.7a.59.59,0,0,0,0,1.17A.59.59,0,0,0,23.07,75.7Z" fill="#fff" fill-rule="evenodd"/>
        <path d="M23.07,72.18a1.17,1.17,0,0,0,0,2.34A1.17,1.17,0,0,0,23.07,72.18Z" fill="#fff" fill-rule="evenodd"/>
        <path d="M23.07,70.14a.59.59,0,0,0,0,1.17A.59.59,0,0,0,23.07,70.14Z" fill="#fff" fill-rule="evenodd"/>
        <path d="M23.07,66.62a1.18,1.18,0,0,0,0,2.35A1.18,1.18,0,0,0,23.07,66.62Z" fill="#fff" fill-rule="evenodd"/>
        <path d="M23.07,64.59a.59.59,0,0,0,0,1.17A.59.59,0,0,0,23.07,64.59Z" fill="#fff" fill-rule="evenodd"/>
        <path d="M23.07,61.07a1.17,1.17,0,0,0,0,2.34A1.17,1.17,0,0,0,23.07,61.07Z" fill="#fff" fill-rule="evenodd"/>
        <path d="M23.07,59a.59.59,0,0,0,0,1.17A.59.59,0,0,0,23.07,59Z" fill="#fff" fill-rule="evenodd"/>
        <path d="M23.07,55.52a1.17,1.17,0,0,0,0,2.34A1.17,1.17,0,0,0,23.07,55.52Z" fill="#fff" fill-rule="evenodd"/>
        <path d="M23.07,53.49a.59.59,0,0,0,0,1.17A.59.59,0,0,0,23.07,53.49Z" fill="#fff" fill-rule="evenodd"/>
        <path d="M23.07,50a1.17,1.17,0,0,0,0,2.34A1.17,1.17,0,0,0,23.07,50Z" fill="#fff" fill-rule="evenodd"/>
        <path d="M23.07,47.94a.59.59,0,0,0,0,1.17A.59.59,0,0,0,23.07,47.94Z" fill="#fff" fill-rule="evenodd"/>
        <path d="M23.07,44.42a1.17,1.17,0,0,0,0,2.34A1.17,1.17,0,0,0,23.07,44.42Z" fill="#fff" fill-rule="evenodd"/>
        <path d="M23.07,42.38a.59.59,0,0,0,0,1.17A.59.59,0,0,0,23.07,42.38Z" fill="#fff" fill-rule="evenodd"/>
        <path d="M23.07,38.86a1.17,1.17,0,0,0,0,2.34A1.17,1.17,0,0,0,23.07,38.86Z" fill="#fff" fill-rule="evenodd"/>
        <path d="M23.07,36.83a.59.59,0,0,0,0,1.17A.59.59,0,0,0,23.07,36.83Z" fill="#fff" fill-rule="evenodd"/>
        <path d="M23.07,33.31a1.17,1.17,0,0,0,0,2.34A1.17,1.17,0,0,0,23.07,33.31Z" fill="#fff" fill-rule="evenodd"/>
        <path d="M23.07,31.28a.59.59,0,0,0,0,1.17A.59.59,0,0,0,23.07,31.28Z" fill="#fff" fill-rule="evenodd"/>
        <path d="M23.07,27.76a1.17,1.17,0,0,0,0,2.34A1.17,1.17,0,0,0,23.07,27.76Z" fill="#fff" fill-rule="evenodd"/>
        <path d="M23.07,25.73a.59.59,0,0,0,0,1.17A.59.59,0,0,0,23.07,25.73Z" fill="#fff" fill-rule="evenodd"/>
        <path d="M23.07,22.21a1.17,1.17,0,0,0,0,2.34A1.17,1.17,0,0,0,23.07,22.21Z" fill="#fff" fill-rule="evenodd"/>
        <path d="M23.07,20.18a.59.59,0,0,0,0,1.17A.59.59,0,0,0,23.07,20.18Z" fill="#fff" fill-rule="evenodd"/>
        <path d="M23.07,16.66a1.17,1.17,0,0,0,0,2.34A1.17,1.17,0,0,0,23.07,16.66Z" fill="#fff" fill-rule="evenodd"/>
        <path d="M23.07,14.62a.59.59,0,0,0,0,1.17A.59.59,0,0,0,23.07,14.62Z" fill="#fff" fill-rule="evenodd"/>
        <path d="M23.07,11.1a1.17,1.17,0,0,0,0,2.34A1.17,1.17,0,0,0,23.07,11.1Z" fill="#fff" fill-rule="evenodd"/>
        <path d="M23.07,9.07a.59.59,0,0,0,0,1.17A.59.59,0,0,0,23.07,9.07Z" fill="#f9c709" fill-rule="evenodd"/>
        <path d="M23.07,5.55a1.17,1.17,0,0,0,0,2.34A1.17,1.17,0,0,0,23.07,5.55Z" fill="#f9c709" fill-rule="evenodd"/>
        <path d="M23.07,3.52a.59.59,0,0,0,0,1.17A.59.59,0,0,0,23.07,3.52Z" fill="#f9c709" fill-rule="evenodd"/>
        <path d="M23.07,0a1.17,1.17,0,0,0,0,2.34A1.17,1.17,0,0,0,23.07,0Z" fill="#f9c709" fill-rule="evenodd"/>
        <path d="M3,70.3a12.64,12.64,0,0,0,6.69,4.45,10.44,10.44,0,0,0,7.22-3.35Z" fill="#01e6bf" fill-rule="evenodd"/>
        <polygon points="2.04 52.58 2.98 70.3 17.26 70.62 18.51 52.42 2.04 52.58" fill="#d68019" fill-rule="evenodd"/>
        <path d="M19.09,51.22H1.52s.24-3.54,3.66-4.08A5.93,5.93,0,0,0,10,42.85s2,3.56,4.49,4S19.09,49.55,19.09,51.22Z" fill="#09d7eb" fill-rule="evenodd"/>
        <polygon points="20.24 50.85 0 50.85 0.31 52.89 20.24 53.05 20.24 50.85" fill="#fdc602" fill-rule="evenodd"/>
        <path d="M12.71,68.74l-4.55-.32s-1.1-7.21-.79-9.57S10,54.46,10,54.46s2.67,1.73,3.29,4.24S12.71,68.74,12.71,68.74Z" fill="#fff" fill-rule="evenodd"/>
        <path d="M16.79,68.58H14.43s.16-6.59.47-8.79a13.45,13.45,0,0,1,2.36-4.86Z" fill="#fff" fill-rule="evenodd"/>
        <path d="M6.75,68l-2.67.31-.79-13A7.07,7.07,0,0,1,5.8,58.38C6.27,60.11,6.75,68,6.75,68Z" fill="#fff" fill-rule="evenodd"/>
        <path d="M6.22,56.45a10.24,10.24,0,0,0-1.78-2.2C5.18,54.15,8,54,8,54Z" fill="#fdc602" fill-rule="evenodd"/>
        <polygon points="14.17 56.76 12.6 54.46 15.74 54.67 14.17 56.76" fill="#fdc602" fill-rule="evenodd"/>
        <polygon points="1.62 69.94 18.46 70.78 18.04 72.34 1.73 71.45 1.62 69.94" fill="#fdcd1d" fill-rule="evenodd"/>
        <path d="M11.09,75.17a1.36,1.36,0,0,1-1.31,1.41,1.41,1.41,0,0,1,0-2.82A1.36,1.36,0,0,1,11.09,75.17Z" fill="#09d7eb" fill-rule="evenodd"/>
        <path d="M10,40.24a1.57,1.57,0,1,0,1.57,1.57A1.57,1.57,0,0,0,10,40.24Zm0,2.47h0a.9.9,0,1,1,.9-.9A.9.9,0,0,1,10,42.71Z" fill="#fff" fill-rule="evenodd"/>
        <path d="M8.11,47.17a1.09,1.09,0,0,0-.55.13,16.37,16.37,0,0,0-1.75.82,6.09,6.09,0,0,0-.89.52c-.3.22-.59.44-.9.65s0,.88.37.63a6.35,6.35,0,0,1,.81-.44L6.06,49c.54-.28,1.09-.54,1.66-.78.32-.13.8-.23.79-.66A.46.46,0,0,0,8.11,47.17Z" fill="#cdebe9" fill-rule="evenodd"/>
        <path d="M9.15,46.25a.47.47,0,0,0,0,.94A.47.47,0,0,0,9.15,46.25Z" fill="#cdebe9" fill-rule="evenodd"/>
        <path d="M10.19,63.19a.26.26,0,0,0-.44,0,3.63,3.63,0,0,0,.08,4.4.17.17,0,0,0,.23,0,.21.21,0,0,0,.16-.12,4.17,4.17,0,0,0,0-4.31ZM9.92,67h0a3.34,3.34,0,0,1,0-3.16A3.72,3.72,0,0,1,9.92,67Z" fill="#fff" fill-rule="evenodd"/>
        <path d="M10.12,37.19a1.18,1.18,0,0,0,0,2.35A1.18,1.18,0,0,0,10.12,37.19Z" fill="#fff" fill-rule="evenodd"/>
        <path d="M10.12,35.16a.59.59,0,0,0,0,1.17A.59.59,0,0,0,10.12,35.16Z" fill="#fff" fill-rule="evenodd"/>
        <path d="M10.12,31.64a1.17,1.17,0,0,0,0,2.34A1.17,1.17,0,0,0,10.12,31.64Z" fill="#fff" fill-rule="evenodd"/>
        <path d="M10.12,29.61a.59.59,0,0,0,0,1.17A.59.59,0,0,0,10.12,29.61Z" fill="#fff" fill-rule="evenodd"/>
        <path d="M10.12,26.09a1.17,1.17,0,0,0,0,2.34A1.17,1.17,0,0,0,10.12,26.09Z" fill="#fff" fill-rule="evenodd"/>
        <path d="M10.12,24.06a.59.59,0,0,0,0,1.17A.59.59,0,0,0,10.12,24.06Z" fill="#fff" fill-rule="evenodd"/>
        <path d="M10.12,20.54a1.17,1.17,0,0,0,0,2.34A1.17,1.17,0,0,0,10.12,20.54Z" fill="#fff" fill-rule="evenodd"/>
        <path d="M10.12,18.51a.59.59,0,0,0,0,1.17A.59.59,0,0,0,10.12,18.51Z" fill="#fff" fill-rule="evenodd"/>
        <path d="M10.12,15a1.17,1.17,0,0,0,0,2.34A1.17,1.17,0,0,0,10.12,15Z" fill="#fff" fill-rule="evenodd"/>
        <path d="M10.12,13a.59.59,0,0,0,0,1.17A.59.59,0,0,0,10.12,13Z" fill="#fff" fill-rule="evenodd"/>
        <path d="M10.12,9.43a1.17,1.17,0,0,0,0,2.34A1.17,1.17,0,0,0,10.12,9.43Z" fill="#fff" fill-rule="evenodd"/>
        <path d="M10.12,7.4a.59.59,0,0,0,0,1.17A.59.59,0,0,0,10.12,7.4Z" fill="#f9c709" fill-rule="evenodd"/>
        <path d="M10.12,3.88a1.17,1.17,0,0,0,0,2.34A1.17,1.17,0,0,0,10.12,3.88Z" fill="#f9c709" fill-rule="evenodd"/>
        <path d="M10.12,1.85a.59.59,0,0,0,0,1.17A.59.59,0,0,0,10.12,1.85Z" fill="#f9c709" fill-rule="evenodd"/>
      </g>
    </g>
  </g>
</svg>
