<svg xmlns="http://www.w3.org/2000/svg" viewBox="0 0 52.67 23.89">
  <title>masjid</title>
  <g id="Layer_2" data-name="Layer 2">
    <g id="OBJECTS">
      <g>
        <g>
          <g>
            <path d="M31.12,4.5c-.31,1.13-1.7,1.82-2.78,2.6a7,7,0,0,0-3,4.36,5.45,5.45,0,0,0,1.58,4.78" fill="none" stroke="#fff" stroke-linecap="round" stroke-linejoin="round" stroke-width="0.5"/>
            <path d="M26.56,16.51c-.41-.16-1,.1-1,.47" fill="none" stroke="#fff" stroke-linecap="round" stroke-linejoin="round" stroke-width="0.5"/>
            <path d="M25.59,17.35a.6.6,0,0,0,.67.44" fill="none" stroke="#fff" stroke-linecap="round" stroke-linejoin="round" stroke-width="0.5"/>
            <line x1="26.88" y1="18.08" x2="26.88" y2="23.38" fill="none" stroke="#fff" stroke-linecap="round" stroke-linejoin="round" stroke-width="0.5"/>
          </g>
          <g>
            <path d="M31.22,4.58c.32,1.13,1.7,1.82,2.78,2.59a7,7,0,0,1,3,4.37,5.38,5.38,0,0,1-1.58,4.77" fill="none" stroke="#fff" stroke-linecap="round" stroke-linejoin="round" stroke-width="0.5"/>
            <path d="M35.79,16.59c.41-.16,1,.1,1,.47" fill="none" stroke="#fff" stroke-linecap="round" stroke-linejoin="round" stroke-width="0.5"/>
            <path d="M36.75,17.42a.61.61,0,0,1-.67.45" fill="none" stroke="#fff" stroke-linecap="round" stroke-linejoin="round" stroke-width="0.5"/>
            <line x1="35.46" y1="18.16" x2="35.46" y2="23.46" fill="none" stroke="#fff" stroke-linecap="round" stroke-linejoin="round" stroke-width="0.5"/>
          </g>
        </g>
        <g>
          <g>
            <path d="M10.25,12.24c-.18.64-1,1-1.58,1.47A4,4,0,0,0,7,16.2a3.08,3.08,0,0,0,.9,2.71" fill="none" stroke="#fff" stroke-linecap="round" stroke-linejoin="round" stroke-width="0.5"/>
            <path d="M7.65,19.07c-.23-.09-.55.06-.57.26" fill="none" stroke="#fff" stroke-linecap="round" stroke-linejoin="round" stroke-width="0.5"/>
            <path d="M7.1,19.54c0,.15.2.27.39.26" fill="none" stroke="#fff" stroke-linecap="round" stroke-linejoin="round" stroke-width="0.5"/>
            <line x1="7.84" y1="19.96" x2="7.84" y2="22.97" fill="none" stroke="#fff" stroke-linecap="round" stroke-linejoin="round" stroke-width="0.5"/>
          </g>
          <g>
            <path d="M10.3,12.28c.19.65,1,1,1.59,1.48a4,4,0,0,1,1.69,2.48,3.08,3.08,0,0,1-.9,2.72" fill="none" stroke="#fff" stroke-linecap="round" stroke-linejoin="round" stroke-width="0.5"/>
            <path d="M12.9,19.11c.24-.09.55.06.57.27" fill="none" stroke="#fff" stroke-linecap="round" stroke-linejoin="round" stroke-width="0.5"/>
            <path d="M13.45,19.59a.34.34,0,0,1-.38.25" fill="none" stroke="#fff" stroke-linecap="round" stroke-linejoin="round" stroke-width="0.5"/>
            <line x1="12.72" y1="20.01" x2="12.72" y2="23.02" fill="none" stroke="#fff" stroke-linecap="round" stroke-linejoin="round" stroke-width="0.5"/>
          </g>
        </g>
        <line x1="26.56" y1="23.64" x2="25.35" y2="23.64" fill="none" stroke="#fff" stroke-linecap="round" stroke-linejoin="round" stroke-width="0.5"/>
        <g>
          <g>
            <path d="M15.75.25a2.79,2.79,0,0,0-1,2.21" fill="none" stroke="#fff" stroke-linecap="round" stroke-linejoin="round" stroke-width="0.5"/>
            <line x1="14.72" y1="3.32" x2="14.72" y2="22.84" fill="none" stroke="#fff" stroke-linecap="round" stroke-linejoin="round" stroke-width="0.5"/>
          </g>
          <g>
            <path d="M15.75.25a2.79,2.79,0,0,1,1,2.21" fill="none" stroke="#fff" stroke-linecap="round" stroke-linejoin="round" stroke-width="0.5"/>
            <line x1="16.78" y1="3.32" x2="16.78" y2="22.84" fill="none" stroke="#fff" stroke-linecap="round" stroke-linejoin="round" stroke-width="0.5"/>
          </g>
        </g>
        <path d="M16.74,22.76a5.56,5.56,0,0,1,2-3.87,1.48,1.48,0,0,1,.61-.34" fill="none" stroke="#fff" stroke-linecap="round" stroke-linejoin="round" stroke-width="0.5"/>
        <path d="M20,18.58a6.91,6.91,0,0,1,2.87,4.84" fill="none" stroke="#fff" stroke-linecap="round" stroke-linejoin="round" stroke-width="0.5"/>
        <line x1="23.25" y1="23.42" x2="24.99" y2="23.42" fill="none" stroke="#fff" stroke-linecap="round" stroke-linejoin="round" stroke-width="0.5"/>
        <line x1="36.01" y1="23.46" x2="39.01" y2="23.46" fill="none" stroke="#fff" stroke-linecap="round" stroke-linejoin="round" stroke-width="0.5"/>
        <path d="M39.42,22.84a7.51,7.51,0,0,1,4.16-6.76" fill="none" stroke="#fff" stroke-linecap="round" stroke-linejoin="round" stroke-width="0.5"/>
        <path d="M44.22,16.13a7.76,7.76,0,0,1,4.05,5.68" fill="none" stroke="#fff" stroke-linecap="round" stroke-linejoin="round" stroke-width="0.5"/>
        <line x1="48.8" y1="21.82" x2="51.16" y2="21.82" fill="none" stroke="#fff" stroke-linecap="round" stroke-linejoin="round" stroke-width="0.5"/>
        <path d="M51.51,21.24c.27-.82.22-1.34.91-1.86" fill="none" stroke="#fff" stroke-linecap="round" stroke-linejoin="round" stroke-width="0.5"/>
        <path d="M7.41,22.38A5.68,5.68,0,0,0,4.15,20a3.72,3.72,0,0,0-1.89-.22,3.74,3.74,0,0,0-2,1.33" fill="none" stroke="#fff" stroke-linecap="round" stroke-linejoin="round" stroke-width="0.5"/>
      </g>
    </g>
  </g>
</svg>
