<svg xmlns="http://www.w3.org/2000/svg" viewBox="0 0 40.09 43.58">
  <title>pohon</title>
  <g id="Layer_2" data-name="Layer 2">
    <g id="OBJECTS">
      <g>
        <g>
          <path d="M15.21,20.72C10.93,25.4,9.32,37.38,8.06,43.58l-4.21-.67S7.73,22.67,15.21,20.72Z" fill="#8a5b1f" fill-rule="evenodd"/>
          <path d="M14.63,21.41c-3.84,5.08-5.37,16.26-6.57,22.17l-2.29-.37S8.28,25.28,14.63,21.41Z" fill="#a27021" fill-rule="evenodd"/>
          <path d="M13.79,21.37A8.88,8.88,0,0,1,23.33,23c3.55,3.46,2.58,7.55,2.4,7.42l-4.47-3.2.66-2.49-2.23,1.8S16.08,23.27,13.79,21.37Z" fill="#9ad7d3" fill-rule="evenodd"/>
          <path d="M13.75,21.48a8.91,8.91,0,0,1,7.07-6.62c4.91-.75,7.58,2.49,7.37,2.56L23,19.06l-1.6-2,.1,2.87S16.65,20.8,13.75,21.48Z" fill="#8cd188" fill-rule="evenodd"/>
          <path d="M13.89,21.33a8.88,8.88,0,0,1,4.84,8.38c-.38,4.95-4.14,6.82-4.15,6.6l-.41-5.48,2.33-1.09-2.81-.56S13.9,24.31,13.89,21.33Z" fill="#8cd188" fill-rule="evenodd"/>
          <path d="M13.65,21.51a8.9,8.9,0,0,0-1-9.63C9.45,8.1,5.3,8.79,5.42,9L8.3,13.65l2.54-.48-2,2.1S11.91,19.09,13.65,21.51Z" fill="#9ad7d3" fill-rule="evenodd"/>
          <path d="M13.68,21.34A8.9,8.9,0,0,0,4,20.91C-.21,23.54-.13,27.74.07,27.65l5.05-2.17L5,22.91,6.8,25.14S11,22.71,13.68,21.34Z" fill="#8cd188" fill-rule="evenodd"/>
          <path d="M12.43,24.84a.21.21,0,0,0,.24-.18.21.21,0,0,0-.17-.24l-1.32-.21a.22.22,0,0,0-.25.18.21.21,0,0,0,.18.24Z" fill="#8a5b1f" fill-rule="evenodd"/>
          <path d="M11.67,26.37a.22.22,0,0,0,.25-.18.22.22,0,0,0-.18-.25l-1.32-.21a.23.23,0,0,0-.24.18.22.22,0,0,0,.17.25Z" fill="#8a5b1f" fill-rule="evenodd"/>
          <path d="M10.92,27.89a.21.21,0,0,0,.24-.18.21.21,0,0,0-.17-.24l-1.32-.21a.22.22,0,0,0-.25.18.21.21,0,0,0,.18.24Z" fill="#8a5b1f" fill-rule="evenodd"/>
          <path d="M10.26,29.73a.22.22,0,1,0,.07-.43L9,29.09a.22.22,0,0,0-.07.43Z" fill="#8a5b1f" fill-rule="evenodd"/>
          <path d="M9.6,31.56a.22.22,0,0,0,.25-.18.21.21,0,0,0-.18-.24l-1.32-.21a.21.21,0,0,0-.24.18.21.21,0,0,0,.17.24Z" fill="#8a5b1f" fill-rule="evenodd"/>
          <path d="M9,33.39a.21.21,0,0,0,.24-.17A.22.22,0,0,0,9,33l-1.32-.21a.21.21,0,0,0-.24.18.21.21,0,0,0,.18.24Z" fill="#8a5b1f" fill-rule="evenodd"/>
          <path d="M8.61,35.28a.21.21,0,0,0,.07-.42l-1.32-.21a.21.21,0,1,0-.07.42Z" fill="#8a5b1f" fill-rule="evenodd"/>
          <path d="M8,37.12a.21.21,0,1,0,.07-.42l-1.32-.21a.2.2,0,0,0-.24.18.21.21,0,0,0,.17.24Z" fill="#8a5b1f" fill-rule="evenodd"/>
          <path d="M7.54,39a.23.23,0,0,0,.25-.18.22.22,0,0,0-.18-.25l-1.32-.21a.21.21,0,0,0-.24.18.22.22,0,0,0,.17.25Z" fill="#8a5b1f" fill-rule="evenodd"/>
          <path d="M7.14,40.86a.21.21,0,1,0,.06-.42l-1.32-.21a.21.21,0,0,0-.24.17.22.22,0,0,0,.18.25Z" fill="#8a5b1f" fill-rule="evenodd"/>
          <path d="M6.83,42.75a.22.22,0,0,0,.25-.18.21.21,0,0,0-.18-.24l-1.32-.21a.21.21,0,0,0-.07.42Z" fill="#8a5b1f" fill-rule="evenodd"/>
        </g>
        <g>
          <path d="M35.2,23.09a13.73,13.73,0,0,1-.59,4.05A14.06,14.06,0,0,1,34,23.09a.59.59,0,0,1,1.17,0Z" fill="#fff" fill-rule="evenodd"/>
          <path d="M39.51,28.57a14.06,14.06,0,0,1-4-.58,13.73,13.73,0,0,1,4-.59.59.59,0,0,1,0,1.17Z" fill="#fff" fill-rule="evenodd"/>
          <path d="M37.66,31.86a13.85,13.85,0,0,1-2.45-3.27A13.59,13.59,0,0,1,38.49,31a.59.59,0,1,1-.83.83Z" fill="#fff" fill-rule="evenodd"/>
          <path d="M30.74,31A13.54,13.54,0,0,1,34,28.59a13.33,13.33,0,0,1-2.45,3.27.57.57,0,0,1-.82,0A.59.59,0,0,1,30.74,31Z" fill="#fff" fill-rule="evenodd"/>
          <path d="M35.2,32.88a13.78,13.78,0,0,0-.59-4.05A14.11,14.11,0,0,0,34,32.88a.59.59,0,1,0,1.17,0Z" fill="#fff" fill-rule="evenodd"/>
          <path d="M29.72,28.57A14.11,14.11,0,0,0,33.77,28a13.78,13.78,0,0,0-4.05-.59.59.59,0,1,0,0,1.17Z" fill="#fff" fill-rule="evenodd"/>
          <path d="M30.74,24.94A13.85,13.85,0,0,0,34,27.39a13.38,13.38,0,0,0-2.45-3.28.57.57,0,0,0-.82,0A.59.59,0,0,0,30.74,24.94Z" fill="#fff" fill-rule="evenodd"/>
          <path d="M37.66,24.11a13.9,13.9,0,0,0-2.45,3.28,13.9,13.9,0,0,0,3.28-2.45.59.59,0,1,0-.83-.83Z" fill="#fff" fill-rule="evenodd"/>
        </g>
        <path d="M.46,7.2S2.5,7.13,3,4.5C3.4,7.13,5.44,7.2,5.44,7.2S3.4,7.27,3,9.9C2.5,7.27.46,7.2.46,7.2Z" fill="#c4f1cd" fill-rule="evenodd"/>
        <g>
          <path d="M18.21.48a11.21,11.21,0,0,1-.47,3.28A10.9,10.9,0,0,1,17.26.48.48.48,0,0,1,17.74,0,.47.47,0,0,1,18.21.48Z" fill="#fc0" fill-rule="evenodd"/>
          <path d="M21.71,4.92a11.21,11.21,0,0,1-3.28-.47A11.22,11.22,0,0,1,21.71,4a.49.49,0,0,1,.48.48A.48.48,0,0,1,21.71,4.92Z" fill="#fc0" fill-rule="evenodd"/>
          <path d="M20.21,7.59a11.36,11.36,0,0,1-2-2.65,10.91,10.91,0,0,1,2.66,2,.47.47,0,1,1-.67.67Z" fill="#fc0" fill-rule="evenodd"/>
          <path d="M14.59,6.92a11.3,11.3,0,0,1,2.66-2,10.83,10.83,0,0,1-2,2.65.46.46,0,0,1-.67,0A.48.48,0,0,1,14.59,6.92Z" fill="#fc0" fill-rule="evenodd"/>
          <path d="M18.21,8.42a11.21,11.21,0,0,0-.47-3.28,10.9,10.9,0,0,0-.48,3.28.49.49,0,0,0,.48.48A.48.48,0,0,0,18.21,8.42Z" fill="#fc0" fill-rule="evenodd"/>
          <path d="M13.76,4.92a11.33,11.33,0,0,0,3.29-.47A11.34,11.34,0,0,0,13.76,4a.48.48,0,0,0-.47.48A.47.47,0,0,0,13.76,4.92Z" fill="#fc0" fill-rule="evenodd"/>
          <path d="M14.59,2a11.07,11.07,0,0,0,2.66,2,11.07,11.07,0,0,0-2-2.66.47.47,0,0,0-.67.67Z" fill="#fc0" fill-rule="evenodd"/>
          <path d="M20.21,1.3a11.63,11.63,0,0,0-2,2.66,10.7,10.7,0,0,0,2.66-2,.46.46,0,0,0,0-.67A.48.48,0,0,0,20.21,1.3Z" fill="#fc0" fill-rule="evenodd"/>
        </g>
      </g>
    </g>
  </g>
</svg>
